<svg width="251" height="60" viewBox="0 0 251 60" fill="none" xmlns="http://www.w3.org/2000/svg">
<path d="M30.5 35C30.1667 36 29.8333 37 29.5 38H45.5L49 34.75L53.5 39.5H31.25C33.75 43 37 46.1667 41 49C45.1667 51.6667 50.9167 53.25 58.25 53.75V54.75C55.9167 54.9167 54.25 56.25 53.25 58.75C47.0833 56.75 42.1667 54.0833 38.5 50.75C34.8333 47.4167 32 43.6667 30 39.5H29C26.1667 46.8333 22.4167 51.6667 17.75 54C13.25 56.5 7.66667 58.25 1 59.25L0.75 58.5C5.91667 57.1667 10.5833 55.3333 14.75 53C19.0833 50.6667 22.5833 46.1667 25.25 39.5H11.25C9.08333 39.5 7.08333 39.75 5.25 40.25L3 38H25.75C26.25 35.5 26.6667 33 27 30.5L32.75 33.25L30.5 35ZM40 4.75C38 6.91667 36 9.08333 34 11.25H45L49 8L53.5 12.75H30.5V20.25H42.5L46 17L50.5 21.75H30.5V28.75H49L52.75 25.25L57.5 30.25H8.75C6.58333 30.25 4.58333 30.5 2.75 31L0.5 28.75H27V21.75H15.75C13.5833 21.75 11.5833 22 9.75 22.5L7.5 20.25H27V12.75H12.5C10.3333 12.75 8.33333 13 6.5 13.5L4.25 11.25H20.75C20.25 8.75 18.5833 5.75 15.75 2.25L16.5 1.5C20.8333 3.5 23.1667 4.91667 23.5 5.75C23.8333 6.41667 24 7 24 7.5C24 8.66667 23.5 9.91667 22.5 11.25H32.75C34.25 8.08333 35.75 4.5 37.25 0.5L42.5 4L40 4.75ZM66.5 8.5L70.25 10.5H78.5L80.25 8L84 10.75L82.25 12.5V33C82.25 34.8333 82.3333 37 82.5 39.5L78.75 41.25V36.5H70.25V42L66.5 44.25C66.6667 39.4167 66.75 33.3333 66.75 26C66.75 18.5 66.6667 12.6667 66.5 8.5ZM70.25 12V35H78.75V12H70.25ZM122.75 48.75C120.083 48.5833 118.25 49.5 117.25 51.5C113.583 47.8333 110.75 44.1667 108.75 40.5C106.75 36.8333 105.083 32.4167 103.75 27.25H102V48.25C102 51.0833 102.083 54.1667 102.25 57.5L98.25 59.25C98.4167 55.0833 98.5 52.1667 98.5 50.5V31.5C95.1667 37.5 91.4167 42.5 87.25 46.5C83.25 50.5 79.5 53.3333 76 55L75.25 54.25C79.4167 51.5833 83.4167 47.8333 87.25 43C91.0833 38.1667 94.1667 32.9167 96.5 27.25H91C88.8333 27.25 86.8333 27.5 85 28L82.75 25.75H98.5V14.5H94.25C92.0833 14.5 90.0833 14.75 88.25 15.25L86 13H98.5C98.5 8.66667 98.4167 4.5 98.25 0.5L104 3L102 4.75V13H109.5L112.5 10L117 14.5H102V25.75H113.5L117 22.25L122 27.25H105C107.333 33.5833 110.167 38.4167 113.5 41.75C117 45.0833 120.083 47.0833 122.75 47.75V48.75ZM142.75 7V26H172.5V7H142.75ZM142.75 27.5V49.25H172.5V27.5H142.75ZM139 57.75C139.167 47.9167 139.25 38.9167 139.25 30.75C139.25 22.4167 139.167 13.1667 139 3L142.75 5.5H172L173.75 3L178 6.25L176 7.75V42C176 46.8333 176.083 51.25 176.25 55.25L172.5 57.25V50.75H142.75V55.5L139 57.75ZM205.75 10C205.75 5.83333 205.667 2.66667 205.5 0.5L210.75 3L209 4.5V10H213.25L215.75 7.5L219.75 11.5H209V19.5H215.25L218 16.75L222.25 21H200.25C198.083 21 196.083 21.25 194.25 21.75L192 19.5H205.75V11.5H203C200.833 11.5 198.833 11.75 197 12.25L194.75 10H205.75ZM198.5 22C202.5 24.3333 204.667 26.1667 205 27.5C205.333 28.8333 205.083 29.9167 204.25 30.75C203.583 31.4167 203.083 31.75 202.75 31.75C202.25 31.75 201.917 31.0833 201.75 29.75C201.25 27.9167 199.917 25.5833 197.75 22.75L198.5 22ZM205.5 59.25C205.667 56.9167 205.75 54.6667 205.75 52.5V44.5H200.25C198.083 44.5 196.083 44.75 194.25 45.25L192 43H205.75V33.75H203C200.833 33.75 198.833 34 197 34.5L194.75 32.25H208.75C210.75 28.4167 212.083 24.9167 212.75 21.75L217.25 24.75L215.25 25.75C213.083 28.5833 211.333 30.75 210 32.25H214.25L216.75 29.75L220.75 33.75H209V43H215.25L218 40.25L222.25 44.5H209V50.25C209 52.4167 209.083 54.6667 209.25 57L205.5 59.25ZM226.25 28V53.5C229.917 50.1667 232.75 46.8333 234.75 43.5C231.75 38.1667 229.583 33 228.25 28H226.25ZM222.75 59.25C222.917 56.0833 223 53.3333 223 51V10.5C223 8.5 222.917 5.75 222.75 2.25L226.25 4.5H243L244.75 2.5L248.25 5.5L246.5 6.75C246 12.9167 245.417 16.9167 244.75 18.75C244.083 20.4167 242.417 21.6667 239.75 22.5C239.583 20.5 237.5 18.9167 233.5 17.75V16.75C236.5 17.0833 238.583 17.3333 239.75 17.5C240.917 17.5 241.667 16.75 242 15.25C242.5 13.75 242.917 10.6667 243.25 6H226.25V26.5H242.75L244.75 24.25L249 28.5C247.333 29 245.833 30.5833 244.5 33.25C243.167 35.9167 241.083 39.4167 238.25 43.75C241.917 48.25 246.083 51.25 250.75 52.75V53.75C248.75 53.9167 247.083 54.8333 245.75 56.5C242.75 53.8333 239.667 50.3333 236.5 46C232.5 50.3333 229.083 53.3333 226.25 55V57.25L222.75 59.25ZM229.25 28C231.083 32.3333 233.5 36.75 236.5 41.25C239.5 36.5833 241.75 32.1667 243.25 28H229.25Z" fill="#594543"/>
</svg>
