<svg width="118" height="38" viewBox="0 0 118 38" fill="none" xmlns="http://www.w3.org/2000/svg">
<path d="M6.08 9.48C5.06667 9.21333 4.34667 8.61333 3.92 7.68C3.49333 6.74667 3.24 5.28 3.16 3.28H33.6C34.16 3.62667 34.5733 4.06667 34.84 4.6C35.1333 5.13333 35.2667 5.68 35.24 6.24C35.2133 6.90667 34.9867 7.52 34.56 8.08C34.16 8.61333 33.5733 8.98667 32.8 9.2C32.4533 9.30667 31.7467 9.4 30.68 9.48C29.64 9.56 28.36 9.62667 26.84 9.68C25.3467 9.73333 23.7333 9.78667 22 9.84C20.2933 9.86667 18.5733 9.88 16.84 9.88C15.1333 9.88 13.52 9.86667 12 9.84C10.5067 9.81333 9.24 9.77333 8.2 9.72C7.16 9.66667 6.45333 9.58667 6.08 9.48ZM6.08 15.72H30.24C30.7733 16.04 31.1733 16.4533 31.44 16.96C31.7067 17.4667 31.8533 17.9867 31.88 18.52C31.88 19.1867 31.68 19.8133 31.28 20.4C30.9067 20.9867 30.3067 21.4 29.48 21.64C29.0533 21.7467 28.32 21.8533 27.28 21.96C26.24 22.04 25.0133 22.1067 23.6 22.16C22.2133 22.2133 20.76 22.2533 19.24 22.28C17.72 22.3067 16.2533 22.3067 14.84 22.28C13.4533 22.2533 12.24 22.2133 11.2 22.16C10.16 22.08 9.42667 21.9867 9 21.88C7.98667 21.6133 7.26667 21.0267 6.84 20.12C6.41333 19.1867 6.16 17.72 6.08 15.72ZM35.68 27.96C36.2667 28.3067 36.6933 28.7867 36.96 29.4C37.2267 29.9867 37.3333 30.5867 37.28 31.2C37.2533 31.84 37.04 32.4267 36.64 32.96C36.24 33.4933 35.6533 33.8667 34.88 34.08C34.5067 34.1867 33.72 34.2667 32.52 34.32C31.3467 34.4 29.88 34.4533 28.12 34.48C26.3867 34.5333 24.52 34.56 22.52 34.56C20.52 34.56 18.5067 34.5467 16.48 34.52C14.48 34.4933 12.6133 34.4533 10.88 34.4C9.14667 34.3733 7.68 34.32 6.48 34.24C5.28 34.16 4.49333 34.08 4.12 34C3.45333 33.8133 2.86667 33.5333 2.36 33.16C1.85333 32.76 1.45333 32.16 1.16 31.36C0.893333 30.5333 0.733333 29.4 0.68 27.96H35.68ZM62.68 29.2C62.7867 29.8667 63.0133 30.3067 63.36 30.52C63.7067 30.7333 64.1333 30.8933 64.64 31C64.8267 31.0267 65.3333 31.0667 66.16 31.12C66.9867 31.1733 67.9467 31.2133 69.04 31.24C70.16 31.2667 71.2667 31.2933 72.36 31.32C73.48 31.32 74.44 31.32 75.24 31.32C76.0667 31.32 76.5867 31.3067 76.8 31.28C76.8 31.6 76.76 32.08 76.68 32.72C76.6 33.3333 76.3867 33.9867 76.04 34.68C75.72 35.3733 75.1467 35.9867 74.32 36.52C74.0533 36.7067 73.4267 36.8533 72.44 36.96C71.4533 37.0933 70.2133 37.1467 68.72 37.12C67.2533 37.0933 65.6267 36.96 63.84 36.72C62.08 36.48 60.2267 36.1467 58.28 35.72C56.3333 35.2933 54.3333 34.5867 52.28 33.6C51.9067 33.3867 51.5067 33.2133 51.08 33.08C50.68 32.9467 50.2533 32.9867 49.8 33.2C49.3467 33.3867 48.8667 33.8933 48.36 34.72C47.8533 35.52 47.2933 36.1067 46.68 36.48C46.0933 36.8533 45.5067 37.0933 44.92 37.2C44.3067 37.3067 43.7333 37.32 43.2 37.24C42.6933 37.1867 42.28 37.1067 41.96 37C41.64 36.8933 41.48 36.84 41.48 36.84L46.88 20.48C46.88 20.48 47.16 20.56 47.72 20.72C48.28 20.88 48.92 21.12 49.64 21.44C50.3867 21.7333 51.0133 22.08 51.52 22.48C51.8133 22.6933 52 23.0267 52.08 23.48C52.1867 23.9067 52.24 24.36 52.24 24.84C52.2667 25.2933 52.3067 25.6933 52.36 26.04C52.4133 26.4933 52.56 26.96 52.8 27.44C53.0667 27.8933 53.3733 28.1733 53.72 28.28C54.04 28.3867 54.4133 28.3733 54.84 28.24C55.2667 28.1067 55.52 27.8133 55.6 27.36C55.6533 27.1467 55.68 26.76 55.68 26.2C55.7067 25.6133 55.72 24.9733 55.72 24.28C55.72 23.56 55.7067 22.8933 55.68 22.28C55.68 21.6667 55.6533 21.2 55.6 20.88C55.5467 20.2667 55.3067 19.8267 54.88 19.56C54.4533 19.2667 54.0667 19.1067 53.72 19.08C52.6267 18.9733 51.6133 18.84 50.68 18.68C49.7467 18.52 48.96 18.3333 48.32 18.12C47.4133 17.8 46.5733 17.2133 45.8 16.36C45.0533 15.48 44.5733 14.32 44.36 12.88C44.28 12.2667 44.2133 11.4267 44.16 10.36C44.1333 9.29333 44.12 8.17333 44.12 7C44.12 5.8 44.1467 4.70667 44.2 3.72C44.2533 2.70667 44.32 1.97333 44.4 1.52H73.52C73.6 1.84 73.6667 2.37333 73.72 3.12C73.7733 3.84 73.8133 4.66666 73.84 5.6C73.8667 6.50666 73.88 7.44 73.88 8.4C73.88 9.33333 73.8667 10.2 73.84 11C73.84 11.8 73.8267 12.4267 73.8 12.88C73.7467 14.24 73.32 15.4267 72.52 16.44C71.72 17.4533 70.72 18.12 69.52 18.44C68.32 18.7333 66.7067 18.96 64.68 19.12C64.36 19.1467 63.96 19.2133 63.48 19.32C63.0267 19.4267 62.7733 19.64 62.72 19.96C62.64 20.68 63.1333 21.04 64.2 21.04H74.84C75.24 21.4667 75.52 21.8933 75.68 22.32C75.8667 22.72 75.96 23.1067 75.96 23.48C75.96 23.9867 75.8133 24.44 75.52 24.84C75.2533 25.24 74.9333 25.5733 74.56 25.84C74.1867 26.08 73.8533 26.2533 73.56 26.36C73.2933 26.44 72.6533 26.5067 71.64 26.56C70.6533 26.5867 69.5067 26.6133 68.2 26.64C66.8933 26.64 65.6267 26.6267 64.4 26.6C64.1067 26.5733 63.76 26.6533 63.36 26.84C62.9867 27.0267 62.7733 27.3333 62.72 27.76C62.6933 27.92 62.6667 28.1333 62.64 28.4C62.64 28.64 62.6533 28.9067 62.68 29.2ZM51.36 10.16C51.36 10.7467 51.4267 11.2 51.56 11.52C51.72 11.84 52.0267 12.0933 52.48 12.28C52.9867 12.4667 53.72 12.6267 54.68 12.76C55.64 12.8667 56.6933 12.9333 57.84 12.96C59.0133 12.9867 60.16 12.9867 61.28 12.96C62.4267 12.9067 63.44 12.8267 64.32 12.72C65.2267 12.6133 65.88 12.48 66.28 12.32C66.7067 12.1067 66.9867 11.7867 67.12 11.36C67.28 10.9333 67.3467 10.5333 67.32 10.16C67.2933 9.78667 67.2133 9.33333 67.08 8.8C66.9467 8.26666 66.6267 7.94667 66.12 7.84C65.8533 7.76 65.2533 7.70667 64.32 7.68C63.3867 7.62667 62.2933 7.6 61.04 7.6C59.7867 7.57333 58.5333 7.57333 57.28 7.6C56.0267 7.6 54.9333 7.62667 54 7.68C53.0667 7.70667 52.4667 7.76 52.2 7.84C51.8533 7.94667 51.6267 8.24 51.52 8.72C51.4133 9.17333 51.36 9.65333 51.36 10.16ZM92.12 21.92C91.9333 21.92 91.8 21.9867 91.72 22.12C91.6667 22.2533 91.6667 22.4 91.72 22.56C91.8533 22.9867 92.24 23.2533 92.88 23.36C93.0933 23.3867 93.6533 23.4133 94.56 23.44C95.4933 23.44 96.6533 23.44 98.04 23.44C99.4533 23.44 100.96 23.44 102.56 23.44C104.187 23.44 105.787 23.44 107.36 23.44C108.96 23.4133 110.413 23.4 111.72 23.4C113.027 23.3733 114.067 23.36 114.84 23.36C115.64 23.36 116.04 23.36 116.04 23.36C116.04 23.36 116.04 23.6 116.04 24.08C116.067 24.56 116.08 25.1867 116.08 25.96C116.107 26.7067 116.107 27.5067 116.08 28.36C116.08 29.2133 116.053 30.0267 116 30.8C115.947 31.5733 115.853 32.2 115.72 32.68C115.507 33.5067 115.227 34.2 114.88 34.76C114.533 35.32 114.16 35.76 113.76 36.08C113.013 36.6667 112.24 36.9733 111.44 37C110.64 37.0533 109.973 37.0533 109.44 37C108.48 36.8667 107.76 36.5333 107.28 36C106.8 35.4933 106.453 34.84 106.24 34.04C106.853 34.0933 107.467 33.9067 108.08 33.48C108.693 33.0533 109.08 32.5067 109.24 31.84C109.32 31.5467 109.373 31.2 109.4 30.8C109.427 30.3733 109.36 29.9467 109.2 29.52C109.067 29.0933 108.76 28.72 108.28 28.4C107.827 28.0533 107.147 27.8267 106.24 27.72C106.08 27.6933 105.52 27.6933 104.56 27.72C103.6 27.72 102.4 27.7333 100.96 27.76C99.52 27.7867 98 27.8 96.4 27.8C94.8 27.8 93.2533 27.7867 91.76 27.76C90.2667 27.7067 89 27.6267 87.96 27.52C87.16 27.44 86.36 27.0533 85.56 26.36C84.7867 25.64 84.3333 24.5467 84.2 23.08C84.1733 22.7867 84.1467 22.1333 84.12 21.12C84.0933 20.08 84.08 18.8533 84.08 17.44C84.08 16 84.08 14.52 84.08 13C84.08 11.48 84.08 10.0667 84.08 8.76C84.1067 7.42666 84.12 6.34667 84.12 5.52C84.12 4.69333 84.12 4.28 84.12 4.28H93.16C93.3733 4.28 93.6267 4.24 93.92 4.16C94.24 4.08 94.4933 3.94667 94.68 3.76C94.8667 3.6 95.08 3.33333 95.32 2.96C95.5867 2.58667 95.84 2.18667 96.08 1.76C96.3467 1.33333 96.56 0.973332 96.72 0.679997C96.88 0.386665 96.96 0.239998 96.96 0.239998C96.96 0.239998 97.2 0.266665 97.68 0.319997C98.16 0.373332 98.7333 0.466665 99.4 0.599998C100.067 0.706665 100.707 0.853332 101.32 1.04C101.96 1.22667 102.427 1.45333 102.72 1.72C102.933 1.88 103.04 2.06666 103.04 2.28C103.04 2.46667 103.013 2.68 102.96 2.92C102.933 3.13333 102.947 3.34666 103 3.56C103.053 3.72 103.187 3.88 103.4 4.04C103.64 4.2 103.933 4.28 104.28 4.28H112.96C112.96 4.28 112.96 4.6 112.96 5.24C112.987 5.88 113 6.65333 113 7.56C113 8.46667 112.973 9.37333 112.92 10.28C112.893 11.16 112.84 11.8667 112.76 12.4C112.653 13.0667 112.373 13.6133 111.92 14.04C111.467 14.44 110.973 14.7467 110.44 14.96C109.907 15.1467 109.453 15.28 109.08 15.36C108.893 15.4133 108.36 15.4533 107.48 15.48C106.627 15.5067 105.573 15.5333 104.32 15.56C103.067 15.56 101.747 15.56 100.36 15.56C98.9733 15.56 97.6533 15.56 96.4 15.56C95.1467 15.56 94.0933 15.56 93.24 15.56C92.4133 15.56 91.92 15.56 91.76 15.56C91.3067 15.56 91 15.6533 90.84 15.84C90.68 16 90.6 16.1333 90.6 16.24C90.6 16.3467 90.6933 16.4933 90.88 16.68C91.0667 16.8667 91.3733 16.96 91.8 16.96H116.16C116.693 17.3333 117.04 17.7467 117.2 18.2C117.387 18.6267 117.453 19.0667 117.4 19.52C117.32 20.08 117.067 20.5733 116.64 21C116.213 21.4 115.707 21.6533 115.12 21.76C114.96 21.7867 114.467 21.8133 113.64 21.84C112.84 21.8667 111.8 21.8933 110.52 21.92C109.267 21.92 107.893 21.9333 106.4 21.96C104.907 21.96 103.387 21.96 101.84 21.96C100.32 21.96 98.88 21.96 97.52 21.96C96.1867 21.96 95.04 21.96 94.08 21.96C93.12 21.9333 92.4667 21.92 92.12 21.92ZM92.96 8.84C92.2667 8.84 91.72 8.94667 91.32 9.16C90.92 9.37333 90.72 9.66667 90.72 10.04C90.72 10.44 90.9067 10.7333 91.28 10.92C91.6533 11.08 92.0933 11.16 92.6 11.16H103.72C103.72 11.16 103.92 11.1467 104.32 11.12C104.72 11.0667 105.12 10.96 105.52 10.8C105.947 10.6133 106.16 10.32 106.16 9.92C106.187 9.49333 106.053 9.2 105.76 9.04C105.467 8.88 105.133 8.78666 104.76 8.76C104.387 8.70667 104.053 8.69333 103.76 8.72C102.72 8.74667 101.52 8.77333 100.16 8.8C98.8 8.8 97.4667 8.81333 96.16 8.84C94.88 8.84 93.8133 8.84 92.96 8.84ZM107.12 31.2C107.173 32.0267 106.973 32.7467 106.52 33.36C106.093 33.9467 105.453 34.24 104.6 34.24C103.747 34.2133 103.08 33.9067 102.6 33.32C102.147 32.7333 101.933 32.0267 101.96 31.2C101.987 30.3467 102.2 29.7333 102.6 29.36C103.027 28.96 103.533 28.72 104.12 28.64C105.213 28.48 105.973 28.6533 106.4 29.16C106.827 29.6667 107.067 30.3467 107.12 31.2ZM85.04 29.28C86.1067 29.3333 86.8533 29.7333 87.28 30.48C87.7333 31.2267 87.8933 32.04 87.76 32.92C87.68 33.5067 87.4267 34.0533 87 34.56C86.6 35.0667 86.12 35.4667 85.56 35.76C85 36.08 84.4533 36.2533 83.92 36.28C83.3867 36.3067 82.88 36.1067 82.4 35.68C81.9467 35.2533 81.6 34.7067 81.36 34.04C81.12 33.4 81.0533 32.76 81.16 32.12C81.32 31.1333 81.7467 30.4 82.44 29.92C83.1333 29.44 84 29.2267 85.04 29.28ZM97.88 29.48C98.8667 29.3467 99.56 29.5067 99.96 29.96C100.36 30.4133 100.653 31.0533 100.84 31.88C100.973 32.4133 100.933 32.9467 100.72 33.48C100.507 34.0133 100.173 34.4533 99.72 34.8C99.2667 35.1467 98.7067 35.32 98.04 35.32C97.0533 35.32 96.3467 35.0267 95.92 34.44C95.52 33.8533 95.32 33.2 95.32 32.48C95.3467 31.76 95.5333 31.12 95.88 30.56C96.2267 29.9733 96.8933 29.6133 97.88 29.48ZM91.2 29.88C91.84 29.8533 92.4267 30.16 92.96 30.8C93.52 31.4133 93.8133 32.12 93.84 32.92C93.8667 33.9067 93.6133 34.68 93.08 35.24C92.5467 35.8 91.84 36.04 90.96 35.96C90.08 35.8533 89.3733 35.4533 88.84 34.76C88.3333 34.0667 88.1733 33.2133 88.36 32.2C88.5467 31.4 88.8933 30.8267 89.4 30.48C89.9333 30.1067 90.5333 29.9067 91.2 29.88Z" fill="#8C7B7B"/>
</svg>
